<?xml version="1.0" encoding="utf-8"?>
<!-- Generator: Adobe Illustrator 24.1.0, SVG Export Plug-In . SVG Version: 6.00 Build 0)  -->
<svg version="1.1" id="圖層_1" xmlns="http://www.w3.org/2000/svg" xmlns:xlink="http://www.w3.org/1999/xlink" x="0px" y="0px"
	 viewBox="0 0 402 77" style="enable-background:new 0 0 402 77;" xml:space="preserve">
<style type="text/css">
	.st0{fill:#006C93;}
	.st1{fill:#A1CC56;}
</style>
<g>
	<polygon class="st0" points="2,15.704 21.393,15.704 33.393,52.668 33.635,52.668 43.696,15.704 63.573,15.704 74.481,52.668 
		74.723,52.668 85.753,15.704 104.178,15.704 83.209,74.605 65.27,74.605 53.028,35.46 52.785,35.46 41.877,74.605 23.575,74.605 
		2,15.704 	"/>
	<polygon class="st0" points="108.018,0.939 127.395,0.939 127.395,15.707 108.018,15.707 108.018,0.939 	"/>
	<polygon class="st1" points="108.018,15.707 127.395,15.704 127.395,74.605 108.018,74.605 108.018,15.707 	"/>
	<path class="st0" d="M168.797,33.035c-2.668-3.27-6.183-4.968-10.545-4.968c-3.031,0-6.668,1.333-6.668,4.847
		c0,8.727,30.666,1.333,30.666,23.751c0,15.036-14.545,19.395-27.15,19.395c-8.243,0-17.334-2.061-23.152-7.996l11.03-12.243
		c3.393,4.119,7.394,6.423,12.847,6.423c4.122,0,8.243-1.091,8.243-4.242c0-9.452-30.666-1.454-30.666-23.876
		c0-13.818,12.363-19.878,24.727-19.878c7.756,0,16.363,1.939,21.816,7.757L168.797,33.035L168.797,33.035z"/>
	<path class="st0" d="M226.771,30.248h-16.005V49.88c0,6.304,0.733,10.909,8.605,10.909c1.943,0,5.822-0.242,7.399-1.695v15.147
		c-4.001,1.456-8.484,1.82-12.727,1.82c-12.121,0-21.455-4.968-21.455-17.816V30.248h-11.637V15.704h11.637V0.942h18.177v14.762
		h16.005V30.248L226.771,30.248z"/>
	<path class="st0" d="M233.16,15.704h18.18v9.452h0.242c3.879-7.147,8.97-10.907,16.97-10.907c2.06,0,4.364,0.122,6.06,0.605v16.607
		c-2.546-0.724-5.09-1.212-7.755-1.212c-13.82,0-15.517,8-15.517,19.752v24.604h-18.18V15.704L233.16,15.704z"/>
	<path class="st0" d="M290.847,45.156c0-8.846,5.457-14.908,14.545-14.908c9.09,0,14.546,6.061,14.546,14.908
		c0,8.844-5.457,14.908-14.546,14.908C296.303,60.064,290.847,54.001,290.847,45.156L290.847,45.156z M272.666,45.156
		c0,18.782,14.546,30.905,32.727,30.905c18.181,0,32.727-12.122,32.727-30.905c0-18.787-14.546-30.908-32.727-30.908
		C287.212,14.249,272.666,26.369,272.666,45.156L272.666,45.156z"/>
	<path class="st0" d="M343.274,15.704h17.452v7.998h0.242c2.425-4.606,8.364-9.454,17.211-9.454
		c18.423,0,21.821,12.12,21.821,27.876v32.48h-18.182V45.762c0-6.785-0.123-15.514-9.456-15.514
		c-9.455,0-10.905,7.395-10.905,15.031v29.326h-18.183V15.704L343.274,15.704z"/>
</g>
</svg>
